<?xml version="1.0" encoding="UTF-8" standalone="no"?>
<!-- Created with Inkscape (http://www.inkscape.org/) -->

<svg
   width="195.10268mm"
   height="156.68359mm"
   viewBox="0 0 195.10268 156.68359"
   version="1.1"
   id="svg1"
   inkscape:version="1.4.2 (ebf0e940d0, 2025-05-08)"
   sodipodi:docname="flowstt-icon.svg"
   xml:space="preserve"
   xmlns:inkscape="http://www.inkscape.org/namespaces/inkscape"
   xmlns:sodipodi="http://sodipodi.sourceforge.net/DTD/sodipodi-0.dtd"
   xmlns:xlink="http://www.w3.org/1999/xlink"
   xmlns="http://www.w3.org/2000/svg"
   xmlns:svg="http://www.w3.org/2000/svg"><sodipodi:namedview
     id="namedview1"
     pagecolor="#000000"
     bordercolor="#767676"
     borderopacity="0.24705882"
     inkscape:showpageshadow="2"
     inkscape:pageopacity="0.0"
     inkscape:pagecheckerboard="0"
     inkscape:deskcolor="#2a2a2a"
     inkscape:document-units="mm"
     showgrid="true"
     inkscape:zoom="1.2470525"
     inkscape:cx="4.4103999"
     inkscape:cy="263.8221"
     inkscape:window-width="3046"
     inkscape:window-height="1664"
     inkscape:window-x="0"
     inkscape:window-y="0"
     inkscape:window-maximized="1"
     inkscape:current-layer="layer2"><inkscape:grid
       id="grid1"
       units="mm"
       originx="-348.36264"
       originy="-95.380859"
       spacingx="0.99999998"
       spacingy="1"
       empcolor="#0099e5"
       empopacity="0.30196078"
       color="#0099e5"
       opacity="0.14901961"
       empspacing="5"
       enabled="true"
       visible="true" /></sodipodi:namedview><defs
     id="defs1"><linearGradient
       id="linearGradient14"
       inkscape:collect="always"><stop
         style="stop-color:#bbbbbb;stop-opacity:1;"
         offset="0"
         id="stop14" /><stop
         style="stop-color:#bbbbbb;stop-opacity:0;"
         offset="1"
         id="stop15" /></linearGradient><linearGradient
       id="linearGradient10"><stop
         style="stop-color:#a11010;stop-opacity:1;"
         offset="0.18969926"
         id="stop9" /><stop
         style="stop-color:#cec81c;stop-opacity:1;"
         offset="0.63229883"
         id="stop10" /></linearGradient><linearGradient
       id="linearGradient4"><stop
         style="stop-color:#b5b5b5;stop-opacity:1;"
         offset="0.26353809"
         id="stop7" /><stop
         style="stop-color:#1330a9;stop-opacity:1;"
         offset="0.63150686"
         id="stop8" /></linearGradient><inkscape:path-effect
       effect="taper_stroke"
       start_shape="center"
       end_shape="center"
       id="path-effect9"
       is_visible="true"
       lpeversion="1"
       stroke_width="6.4459901"
       subpath="1"
       attach_start="1.1950066"
       end_offset="0.7392974"
       start_smoothing="0.5"
       end_smoothing="0.5"
       jointype="extrapolated"
       miter_limit="100" /><inkscape:path-effect
       effect="taper_stroke"
       start_shape="center"
       end_shape="center"
       id="path-effect9-4"
       is_visible="true"
       lpeversion="1"
       stroke_width="6.4459901"
       subpath="1"
       attach_start="1.1950066"
       end_offset="0.52086481"
       start_smoothing="0.5"
       end_smoothing="0.5"
       jointype="extrapolated"
       miter_limit="100" /><inkscape:path-effect
       effect="taper_stroke"
       start_shape="center"
       end_shape="center"
       id="path-effect9-0"
       is_visible="true"
       lpeversion="1"
       stroke_width="6.4459901"
       subpath="1"
       attach_start="1.1950066"
       end_offset="0.7392974"
       start_smoothing="0.5"
       end_smoothing="0.5"
       jointype="extrapolated"
       miter_limit="100" /><inkscape:path-effect
       effect="taper_stroke"
       start_shape="center"
       end_shape="center"
       id="path-effect9-1"
       is_visible="true"
       lpeversion="1"
       stroke_width="6.4459901"
       subpath="1"
       attach_start="1.1950066"
       end_offset="0.7392974"
       start_smoothing="0.5"
       end_smoothing="0.5"
       jointype="extrapolated"
       miter_limit="100" /><inkscape:path-effect
       effect="taper_stroke"
       start_shape="center"
       end_shape="center"
       id="path-effect9-5"
       is_visible="true"
       lpeversion="1"
       stroke_width="6.4459901"
       subpath="1"
       attach_start="1.1950066"
       end_offset="0.7392974"
       start_smoothing="0.5"
       end_smoothing="0.5"
       jointype="extrapolated"
       miter_limit="100" /><linearGradient
       inkscape:collect="always"
       xlink:href="#linearGradient10"
       id="linearGradient7"
       x1="540.92609"
       y1="48.872143"
       x2="666.33551"
       y2="198.32933"
       gradientUnits="userSpaceOnUse"
       gradientTransform="translate(-157.71688,50.121889)" /><linearGradient
       inkscape:collect="always"
       xlink:href="#linearGradient14"
       id="linearGradient15"
       x1="790.63727"
       y1="242.20213"
       x2="1048.8027"
       y2="242.20213"
       gradientUnits="userSpaceOnUse" /><linearGradient
       id="linearGradient9"><stop
         style="stop-color:#129df5;stop-opacity:1;"
         offset="0"
         id="stop9-7" /><stop
         style="stop-color:#8544ec;stop-opacity:1;"
         offset="1"
         id="stop10-5" /></linearGradient><linearGradient
       xlink:href="#linearGradient9"
       id="linearGradient10-6"
       x1="828.6615"
       y1="385.00339"
       x2="1251.6154"
       y2="765.8327"
       gradientUnits="userSpaceOnUse"
       gradientTransform="translate(-69.655155,-298.26697)" /></defs><g
     inkscape:groupmode="layer"
     id="layer2"
     inkscape:label="Layer 2"
     style="opacity:1"
     transform="translate(-348.36264,-95.380863)"><path
       id="path9-3"
       style="baseline-shift:baseline;display:inline;overflow:visible;opacity:1;vector-effect:none;fill:url(#linearGradient7);fill-opacity:1;stroke:none;stroke-linecap:round;enable-background:accumulate;stop-color:#000000;stop-opacity:1"
       inkscape:label="path9-3"
       d="M 393.1537 95.380863 C 376.56758 95.380863 363.11471 108.83375 363.11471 125.41986 L 363.11471 177.03738 C 363.11471 193.6235 376.56758 207.07637 393.1537 207.07637 C 409.73982 207.07637 423.19476 193.6235 423.19476 177.03738 L 423.19476 125.41986 C 423.19476 108.83375 409.73982 95.380863 393.1537 95.380863 z M 543.46546 110.23215 L 539.58869 110.24197 C 526.2092 110.27807 500.91251 110.02179 492.00659 110.3691 C 488.3073 110.51337 479.13534 111.31974 471.05334 117.76348 C 468.65087 119.67897 457.86765 126.53396 455.83463 140.58172 C 454.70025 148.42001 454.13312 157.36408 453.64769 166.35534 C 454.82858 153.71036 468.70799 146.44482 480.74732 145.92455 C 480.74732 145.92455 481.98266 143.46238 483.00455 141.98215 C 484.90187 139.23384 487.58417 137.30559 491.87533 136.85533 C 505.80768 135.39343 516.68003 138.36809 529.25031 133.61315 C 535.89988 131.09782 540.80357 124.79236 542.76834 114.04484 L 543.46546 110.23215 z M 372.37099 124.92428 L 383.08559 124.92428 C 385.73025 124.92428 387.85945 127.05349 387.85945 129.69815 C 387.85945 132.34281 385.73025 134.47202 383.08559 134.47202 L 372.37099 134.47202 C 369.72633 134.47202 367.59712 132.34281 367.59712 129.69815 C 367.59712 127.05349 369.72633 124.92428 372.37099 124.92428 z M 403.06524 124.92428 L 413.77984 124.92428 C 416.4245 124.92428 418.5537 127.05349 418.5537 129.69815 C 418.5537 132.34281 416.4245 134.47202 413.77984 134.47202 L 403.06524 134.47202 C 400.42058 134.47202 398.29138 132.34281 398.29138 129.69815 C 398.29138 127.05349 400.42058 124.92428 403.06524 124.92428 z M 372.37099 139.758 L 383.08559 139.758 C 385.73025 139.758 387.85945 141.88669 387.85945 144.53135 C 387.85945 147.17601 385.73025 149.30522 383.08559 149.30522 L 372.37099 149.30522 C 369.72633 149.30522 367.59712 147.17601 367.59712 144.53135 C 367.59712 141.88669 369.72633 139.758 372.37099 139.758 z M 403.06524 139.758 L 413.77984 139.758 C 416.4245 139.758 418.5537 141.88669 418.5537 144.53135 C 418.5537 147.17601 416.4245 149.30522 413.77984 149.30522 L 403.06524 149.30522 C 400.42058 149.30522 398.29138 147.17601 398.29138 144.53135 C 398.29138 141.88669 400.42058 139.758 403.06524 139.758 z M 522.05591 151.03276 C 520.82876 151.03876 519.60164 151.04342 518.37448 151.04672 C 505.17776 151.08232 489.21132 150.97812 480.57266 151.31492 C 476.18734 151.48594 469.42043 153.89066 463.35976 159.57488 C 459.96932 162.75472 457.84036 166.82857 456.29662 171.31008 C 453.80557 178.61669 452.9864 186.52022 452.05915 192.89429 C 451.48574 196.76695 450.93332 200.06112 450.36107 203.01099 C 449.45112 205.38525 448.63267 207.67064 447.68733 209.77905 C 446.03951 213.44407 444.01808 216.72751 441.47065 219.38776 C 437.83428 223.25261 433.09016 225.92273 428.68539 227.76916 C 415.15364 233.42245 404.47549 233.59982 404.47549 233.59982 C 404.47549 233.59982 407.03587 233.77294 411.50917 233.67371 C 415.75618 233.57951 422.60928 233.17852 429.84914 231.10643 C 434.77296 229.7008 440.28782 227.28448 445.02806 223.08005 C 448.31371 220.12057 450.98875 216.44459 453.05806 212.35357 C 454.78151 208.955 456.06028 205.47703 457.50275 202.29217 C 458.51521 200.04927 459.43771 197.81484 460.35942 195.61092 C 462.14945 191.33175 463.77908 187.8116 466.003 185.0219 C 468.22693 182.2322 471.02043 180.0443 475.70215 178.30138 C 479.25458 176.97889 484.636 177.06388 490.37619 177.1552 C 495.93701 177.2437 502.45342 177.2517 507.73224 174.64786 C 513.30033 171.9013 519.50424 166.05999 521.55362 154.84958 C 521.7845 153.58663 521.95211 152.31244 522.05591 151.03276 z M 372.37099 154.5912 L 383.08559 154.5912 C 385.73025 154.5912 387.85945 156.72041 387.85945 159.36507 C 387.85945 162.00973 385.73025 164.13894 383.08559 164.13894 L 372.37099 164.13894 C 369.72633 164.13894 367.59712 162.00973 367.59712 159.36507 C 367.59712 156.72041 369.72633 154.5912 372.37099 154.5912 z M 403.06524 154.5912 L 413.77984 154.5912 C 416.4245 154.5912 418.5537 156.72041 418.5537 159.36507 C 418.5537 162.00973 416.4245 164.13894 413.77984 164.13894 L 403.06524 164.13894 C 400.42058 164.13894 398.29138 162.00973 398.29138 159.36507 C 398.29138 156.72041 400.42058 154.5912 403.06524 154.5912 z M 351.58518 161.15049 C 349.80544 161.15068 348.36283 162.59329 348.36264 164.37303 L 348.36264 177.72829 C 348.36264 201.23586 366.74297 220.4099 389.93116 221.67755 L 389.93116 245.61924 L 368.05033 245.61924 C 366.27058 245.61942 364.82746 247.06203 364.82727 248.84178 C 364.82745 250.62153 366.27058 252.06414 368.05033 252.06432 L 418.25915 252.06432 C 420.0389 252.06414 421.48151 250.62153 421.48169 248.84178 C 421.4815 247.06203 420.0389 245.61942 418.25915 245.61924 L 396.37831 245.61924 L 396.37831 221.67755 C 419.56651 220.4099 437.94684 201.23586 437.94684 177.72829 L 437.94684 164.37303 C 437.94665 162.59329 436.50352 161.15068 434.72378 161.15049 C 432.94327 161.1496 431.49936 162.59252 431.49917 164.37303 L 431.49917 177.72829 C 431.49917 198.59752 414.80013 215.29861 393.93092 215.29861 L 392.37804 215.29861 C 371.50882 215.29861 354.80772 198.59752 354.80772 177.72829 L 354.80772 164.37303 C 354.80753 162.59329 353.36492 161.15068 351.58518 161.15049 z M 479.84609 181.72753 C 477.99431 181.97707 476.18939 182.57761 474.5384 183.47161 C 474.05955 183.69531 473.59887 183.9481 473.15606 184.2266 C 467.61849 188.98736 464.97142 196.8889 461.69267 204.97262 C 458.08822 213.85932 452.05655 221.84131 445.11074 228.49057 C 449.424 226.57786 453.31002 224.43659 456.77204 222.1602 C 468.48853 214.4562 475.40522 205.37584 477.6023 197.72087 C 478.8184 193.4838 479.48853 188.24238 479.84609 181.72753 z " /></g></svg>
